<svg width="169" height="82" viewBox="0 0 169 82" fill="none" xmlns="http://www.w3.org/2000/svg">
<g filter="url(#filter0_d_1_15)">
<rect x="22" y="14" width="133" height="46" rx="10" fill="#323232"/>
</g>
<path d="M70.6514 40.8501H75.7051V42H69.2378V31.3359H70.6514V40.8501ZM76.7378 37.9644C76.7378 37.188 76.8892 36.4897 77.1919 35.8696C77.4995 35.2495 77.9243 34.771 78.4663 34.4341C79.0132 34.0972 79.6357 33.9287 80.334 33.9287C81.4131 33.9287 82.2847 34.3022 82.9487 35.0493C83.6177 35.7964 83.9521 36.79 83.9521 38.0303V38.1255C83.9521 38.897 83.8032 39.5903 83.5054 40.2056C83.2124 40.8159 82.79 41.292 82.2383 41.6338C81.6914 41.9756 81.0615 42.1465 80.3486 42.1465C79.2744 42.1465 78.4028 41.7729 77.7339 41.0259C77.0698 40.2788 76.7378 39.29 76.7378 38.0596V37.9644ZM78.1001 38.1255C78.1001 39.0044 78.3027 39.71 78.708 40.2422C79.1182 40.7744 79.665 41.0405 80.3486 41.0405C81.0371 41.0405 81.584 40.772 81.9893 40.2349C82.3945 39.6929 82.5972 38.936 82.5972 37.9644C82.5972 37.0952 82.3896 36.3921 81.9746 35.855C81.5645 35.313 81.0176 35.042 80.334 35.042C79.665 35.042 79.1255 35.3081 78.7153 35.8403C78.3052 36.3726 78.1001 37.1343 78.1001 38.1255ZM85.3291 37.9717C85.3291 36.7363 85.6147 35.7549 86.186 35.0273C86.7573 34.2949 87.5142 33.9287 88.4565 33.9287C89.4233 33.9287 90.1777 34.2705 90.7197 34.9541L90.7856 34.0752H92.0234V41.8096C92.0234 42.835 91.7183 43.6431 91.1079 44.2339C90.5024 44.8247 89.687 45.1201 88.6616 45.1201C88.0903 45.1201 87.5312 44.998 86.9844 44.7539C86.4375 44.5098 86.02 44.1753 85.7319 43.7505L86.4351 42.9375C87.0161 43.6553 87.7266 44.0142 88.5664 44.0142C89.2256 44.0142 89.7383 43.8286 90.1045 43.4575C90.4756 43.0864 90.6611 42.564 90.6611 41.8901V41.209C90.1191 41.834 89.3794 42.1465 88.4419 42.1465C87.5142 42.1465 86.7622 41.7729 86.186 41.0259C85.6147 40.2788 85.3291 39.2607 85.3291 37.9717ZM86.6914 38.1255C86.6914 39.019 86.8745 39.7222 87.2407 40.2349C87.6069 40.7427 88.1196 40.9966 88.7788 40.9966C89.6333 40.9966 90.2607 40.6084 90.6611 39.832V36.2139C90.2461 35.457 89.6235 35.0786 88.7935 35.0786C88.1343 35.0786 87.6191 35.335 87.248 35.8477C86.877 36.3604 86.6914 37.1196 86.6914 38.1255ZM95.7954 42H94.3892V31.3359H95.7954V42ZM99.4429 34.0752L99.4868 35.0713C100.092 34.3096 100.883 33.9287 101.86 33.9287C103.535 33.9287 104.379 34.8735 104.394 36.7632V42H103.039V36.7559C103.034 36.1846 102.902 35.7622 102.644 35.4888C102.39 35.2153 101.992 35.0786 101.45 35.0786C101.01 35.0786 100.625 35.1958 100.292 35.4302C99.9604 35.6646 99.7017 35.9722 99.5161 36.353V42H98.1611V34.0752H99.4429Z" fill="white"/>
<defs>
<filter id="filter0_d_1_15" x="0" y="0" width="169" height="82" filterUnits="userSpaceOnUse" color-interpolation-filters="sRGB">
<feFlood flood-opacity="0" result="BackgroundImageFix"/>
<feColorMatrix in="SourceAlpha" type="matrix" values="0 0 0 0 0 0 0 0 0 0 0 0 0 0 0 0 0 0 127 0" result="hardAlpha"/>
<feOffset dx="-4" dy="4"/>
<feGaussianBlur stdDeviation="9"/>
<feColorMatrix type="matrix" values="0 0 0 0 0 0 0 0 0 0 0 0 0 0 0 0 0 0 0.09 0"/>
<feBlend mode="normal" in2="BackgroundImageFix" result="effect1_dropShadow_1_15"/>
<feBlend mode="normal" in="SourceGraphic" in2="effect1_dropShadow_1_15" result="shape"/>
</filter>
</defs>
</svg>
