<svg width="20" height="14" viewBox="0 0 20 14" fill="none" xmlns="http://www.w3.org/2000/svg">
<path d="M12.1797 6.86523C12.1797 8.11328 11.9482 9.21777 11.4854 10.1787C11.0225 11.1396 10.3633 11.8809 9.50781 12.4023C8.6582 12.918 7.68848 13.1758 6.59863 13.1758C5.50879 13.1758 4.54199 12.9268 3.69824 12.4287C2.85449 11.9248 2.19531 11.207 1.7207 10.2754C1.25195 9.34375 1.00586 8.27441 0.982422 7.06738V6.34668C0.982422 5.09277 1.21094 3.98828 1.66797 3.0332C2.13086 2.07227 2.79004 1.33105 3.64551 0.80957C4.50684 0.288086 5.48535 0.0273438 6.58105 0.0273438C7.66504 0.0273438 8.63184 0.285156 9.48145 0.800781C10.3311 1.31641 10.9902 2.05176 11.459 3.00684C11.9336 3.95605 12.1738 5.0459 12.1797 6.27637V6.86523ZM9.04199 6.3291C9.04199 5.05762 8.82812 4.09375 8.40039 3.4375C7.97852 2.77539 7.37207 2.44434 6.58105 2.44434C5.03418 2.44434 4.2168 3.60449 4.12891 5.9248L4.12012 6.86523C4.12012 8.11914 4.32812 9.08301 4.74414 9.75684C5.16016 10.4307 5.77832 10.7676 6.59863 10.7676C7.37793 10.7676 7.97852 10.4365 8.40039 9.77441C8.82227 9.1123 9.03613 8.16016 9.04199 6.91797V6.3291ZM19.3867 6.1709L18.4111 6.10059C17.4795 6.10059 16.8818 6.39355 16.6182 6.97949V13H13.6562V3.49023H16.4336L16.5303 4.71191C17.0283 3.78027 17.7227 3.31445 18.6133 3.31445C18.9297 3.31445 19.2051 3.34961 19.4395 3.41992L19.3867 6.1709Z" fill="black"/>
</svg>
