<svg width="357" height="82" viewBox="0 0 357 82" fill="none" xmlns="http://www.w3.org/2000/svg">
<g filter="url(#filter0_d_1_14)">
<rect x="22" y="14" width="321" height="46" rx="10" fill="#F7F7F7"/>
</g>
<path d="M44.7085 37.3818V41H43.4897V31.7578H46.8984C47.9098 31.7578 48.7011 32.016 49.2724 32.5322C49.848 33.0485 50.1357 33.7319 50.1357 34.5825C50.1357 35.4797 49.8543 36.1715 49.2915 36.6582C48.7329 37.1406 47.931 37.3818 46.8857 37.3818H44.7085ZM44.7085 36.3853H46.8984C47.5501 36.3853 48.0494 36.2329 48.3965 35.9282C48.7435 35.6193 48.917 35.175 48.917 34.5952C48.917 34.0451 48.7435 33.605 48.3965 33.2749C48.0494 32.9448 47.5734 32.7734 46.9682 32.7607H44.7085V36.3853ZM55.6709 41C55.6032 40.8646 55.5481 40.6234 55.5058 40.2764C54.9599 40.8434 54.3082 41.127 53.5508 41.127C52.8737 41.127 52.3172 40.9365 51.8813 40.5557C51.4497 40.1706 51.2339 39.6839 51.2339 39.0957C51.2339 38.3805 51.5047 37.8262 52.0464 37.4326C52.5923 37.0348 53.3582 36.8359 54.3442 36.8359H55.4868V36.2964C55.4868 35.8859 55.3641 35.5601 55.1186 35.3188C54.8732 35.0734 54.5114 34.9507 54.0332 34.9507C53.6142 34.9507 53.263 35.0565 52.9795 35.2681C52.6959 35.4797 52.5542 35.7357 52.5542 36.0361H51.3735C51.3735 35.6934 51.4941 35.3633 51.7353 35.0459C51.9808 34.7243 52.3108 34.4704 52.7256 34.2842C53.1445 34.098 53.6036 34.0049 54.103 34.0049C54.8943 34.0049 55.5143 34.2038 55.9629 34.6016C56.4114 34.9951 56.6442 35.5389 56.6611 36.2329V39.394C56.6611 40.0246 56.7415 40.526 56.9023 40.8984V41H55.6709ZM53.7221 40.105C54.0903 40.105 54.4394 40.0098 54.7695 39.8193C55.0996 39.6289 55.3387 39.3813 55.4868 39.0767V37.6675H54.5664C53.1276 37.6675 52.4082 38.0885 52.4082 38.9307C52.4082 39.2988 52.5309 39.5866 52.7763 39.7939C53.0218 40.0013 53.337 40.105 53.7221 40.105ZM62.5009 39.1782C62.5009 38.8608 62.3803 38.6154 62.1391 38.4419C61.9022 38.2642 61.4853 38.1118 60.8886 37.9849C60.2962 37.8579 59.8244 37.7056 59.4731 37.5278C59.1261 37.3501 58.868 37.1385 58.6987 36.8931C58.5337 36.6476 58.4511 36.3556 58.4511 36.0171C58.4511 35.4543 58.6881 34.9782 59.1621 34.5889C59.6403 34.1995 60.2496 34.0049 60.9902 34.0049C61.7688 34.0049 62.3994 34.2059 62.8818 34.6079C63.3685 35.0099 63.6118 35.5241 63.6118 36.1504H62.4311C62.4311 35.8288 62.2936 35.5516 62.0185 35.3188C61.7477 35.0861 61.4049 34.9697 60.9902 34.9697C60.5628 34.9697 60.2285 35.0628 59.9873 35.249C59.7461 35.4352 59.6255 35.6785 59.6255 35.979C59.6255 36.2625 59.7376 36.4762 59.9619 36.6201C60.1862 36.764 60.5903 36.9015 61.1743 37.0327C61.7625 37.1639 62.2386 37.3205 62.6025 37.5024C62.9664 37.6844 63.2352 37.9045 63.4087 38.1626C63.5864 38.4165 63.6753 38.7275 63.6753 39.0957C63.6753 39.7093 63.4298 40.2023 62.9389 40.5747C62.448 40.9429 61.8112 41.127 61.0283 41.127C60.4782 41.127 59.9915 41.0296 59.5683 40.835C59.1452 40.6403 58.813 40.3695 58.5717 40.0225C58.3348 39.6712 58.2163 39.2925 58.2163 38.8862H59.3906C59.4118 39.2798 59.5683 39.5929 59.8603 39.8257C60.1565 40.0542 60.5459 40.1685 61.0283 40.1685C61.4726 40.1685 61.8281 40.0796 62.0947 39.9019C62.3655 39.7199 62.5009 39.4787 62.5009 39.1782ZM69.2041 39.1782C69.2041 38.8608 69.0835 38.6154 68.8423 38.4419C68.6053 38.2642 68.1884 38.1118 67.5918 37.9849C66.9993 37.8579 66.5275 37.7056 66.1762 37.5278C65.8292 37.3501 65.5711 37.1385 65.4018 36.8931C65.2368 36.6476 65.1543 36.3556 65.1543 36.0171C65.1543 35.4543 65.3912 34.9782 65.8652 34.5889C66.3434 34.1995 66.9528 34.0049 67.6933 34.0049C68.472 34.0049 69.1025 34.2059 69.5849 34.6079C70.0716 35.0099 70.3149 35.5241 70.3149 36.1504H69.1342C69.1342 35.8288 68.9967 35.5516 68.7216 35.3188C68.4508 35.0861 68.108 34.9697 67.6933 34.9697C67.2659 34.9697 66.9316 35.0628 66.6904 35.249C66.4492 35.4352 66.3286 35.6785 66.3286 35.979C66.3286 36.2625 66.4407 36.4762 66.665 36.6201C66.8893 36.764 67.2934 36.9015 67.8774 37.0327C68.4656 37.1639 68.9417 37.3205 69.3056 37.5024C69.6696 37.6844 69.9383 37.9045 70.1118 38.1626C70.2895 38.4165 70.3784 38.7275 70.3784 39.0957C70.3784 39.7093 70.1329 40.2023 69.6421 40.5747C69.1512 40.9429 68.5143 41.127 67.7314 41.127C67.1813 41.127 66.6946 41.0296 66.2715 40.835C65.8483 40.6403 65.5161 40.3695 65.2749 40.0225C65.0379 39.6712 64.9194 39.2925 64.9194 38.8862H66.0937C66.1149 39.2798 66.2715 39.5929 66.5634 39.8257C66.8597 40.0542 67.249 40.1685 67.7314 40.1685C68.1758 40.1685 68.5312 40.0796 68.7978 39.9019C69.0687 39.7199 69.2041 39.4787 69.2041 39.1782ZM77.9892 39.3813L79.3095 34.1318H80.4839L78.4843 41H77.5322L75.8628 35.7949L74.2378 41H73.2856L71.2924 34.1318H72.4604L73.8125 39.2734L75.4121 34.1318H76.3579L77.9892 39.3813ZM81.3725 37.5024C81.3725 36.8296 81.5037 36.2244 81.7661 35.687C82.0327 35.1496 82.4008 34.7349 82.8706 34.4429C83.3445 34.1509 83.8841 34.0049 84.4892 34.0049C85.4244 34.0049 86.1798 34.3286 86.7553 34.9761C87.3351 35.6235 87.625 36.4847 87.625 37.5596V37.6421C87.625 38.3107 87.4959 38.9116 87.2378 39.4448C86.9839 39.9738 86.6178 40.3864 86.1396 40.6826C85.6657 40.9788 85.1198 41.127 84.5019 41.127C83.5709 41.127 82.8156 40.8032 82.2358 40.1558C81.6603 39.5083 81.3725 38.6514 81.3725 37.585V37.5024ZM82.5532 37.6421C82.5532 38.4038 82.7288 39.0153 83.08 39.4766C83.4355 39.9378 83.9095 40.1685 84.5019 40.1685C85.0986 40.1685 85.5726 39.9357 85.9238 39.4702C86.275 39.0005 86.4507 38.3446 86.4507 37.5024C86.4507 36.7492 86.2708 36.1398 85.9111 35.6743C85.5556 35.2046 85.0817 34.9697 84.4892 34.9697C83.9095 34.9697 83.4419 35.2004 83.0864 35.6616C82.7309 36.1229 82.5532 36.783 82.5532 37.6421ZM92.4174 35.1855C92.2397 35.1559 92.0472 35.1411 91.8398 35.1411C91.0696 35.1411 90.547 35.4691 90.2719 36.125V41H89.0976V34.1318H90.2402L90.2592 34.9253C90.6443 34.3117 91.1902 34.0049 91.8969 34.0049C92.1255 34.0049 92.299 34.0345 92.4174 34.0938V35.1855ZM93.0903 37.5088C93.0903 36.4551 93.34 35.6087 93.8393 34.9697C94.3387 34.3265 94.9925 34.0049 95.8008 34.0049C96.6048 34.0049 97.2417 34.2799 97.7114 34.8301V31.25H98.8857V41H97.8066L97.7495 40.2637C97.2798 40.8392 96.6259 41.127 95.7881 41.127C94.9925 41.127 94.3429 40.8011 93.8393 40.1494C93.34 39.4977 93.0903 38.6471 93.0903 37.5977V37.5088ZM94.2646 37.6421C94.2646 38.4207 94.4254 39.0301 94.747 39.4702C95.0687 39.9103 95.513 40.1304 96.08 40.1304C96.8248 40.1304 97.3686 39.7961 97.7114 39.1274V35.9727C97.3602 35.3252 96.8206 35.0015 96.0927 35.0015C95.5172 35.0015 95.0687 35.2236 94.747 35.668C94.4254 36.1123 94.2646 36.7703 94.2646 37.6421Z" fill="#969696"/>
<defs>
<filter id="filter0_d_1_14" x="0" y="0" width="357" height="82" filterUnits="userSpaceOnUse" color-interpolation-filters="sRGB">
<feFlood flood-opacity="0" result="BackgroundImageFix"/>
<feColorMatrix in="SourceAlpha" type="matrix" values="0 0 0 0 0 0 0 0 0 0 0 0 0 0 0 0 0 0 127 0" result="hardAlpha"/>
<feOffset dx="-4" dy="4"/>
<feGaussianBlur stdDeviation="9"/>
<feColorMatrix type="matrix" values="0 0 0 0 0 0 0 0 0 0 0 0 0 0 0 0 0 0 0.09 0"/>
<feBlend mode="normal" in2="BackgroundImageFix" result="effect1_dropShadow_1_14"/>
<feBlend mode="normal" in="SourceGraphic" in2="effect1_dropShadow_1_14" result="shape"/>
</filter>
</defs>
</svg>
