<svg width="357" height="82" viewBox="0 0 357 82" fill="none" xmlns="http://www.w3.org/2000/svg">
<g filter="url(#filter0_d_1_13)">
<rect x="22" y="14" width="321" height="46" rx="10" fill="#F7F7F7"/>
</g>
<path d="M46.4116 40.3208C45.9546 40.8582 45.2838 41.127 44.3994 41.127C43.6673 41.127 43.1087 40.9154 42.7236 40.4922C42.3427 40.0648 42.1502 39.4342 42.146 38.6006V34.1318H43.3203V38.5688C43.3203 39.6099 43.7435 40.1304 44.5898 40.1304C45.4869 40.1304 46.0836 39.7961 46.3799 39.1274V34.1318H47.5542V41H46.437L46.4116 40.3208ZM53.3432 39.1782C53.3432 38.8608 53.2226 38.6154 52.9814 38.4419C52.7444 38.2642 52.3276 38.1118 51.7309 37.9849C51.1385 37.8579 50.6666 37.7056 50.3154 37.5278C49.9684 37.3501 49.7103 37.1385 49.541 36.8931C49.3759 36.6476 49.2934 36.3556 49.2934 36.0171C49.2934 35.4543 49.5304 34.9782 50.0044 34.5889C50.4826 34.1995 51.0919 34.0049 51.8325 34.0049C52.6111 34.0049 53.2417 34.2059 53.7241 34.6079C54.2107 35.0099 54.4541 35.5241 54.4541 36.1504H53.2734C53.2734 35.8288 53.1359 35.5516 52.8608 35.3188C52.59 35.0861 52.2472 34.9697 51.8325 34.9697C51.4051 34.9697 51.0708 35.0628 50.8296 35.249C50.5883 35.4352 50.4677 35.6785 50.4677 35.979C50.4677 36.2625 50.5799 36.4762 50.8042 36.6201C51.0285 36.764 51.4326 36.9015 52.0166 37.0327C52.6048 37.1639 53.0809 37.3205 53.4448 37.5024C53.8087 37.6844 54.0774 37.9045 54.2509 38.1626C54.4287 38.4165 54.5175 38.7275 54.5175 39.0957C54.5175 39.7093 54.2721 40.2023 53.7812 40.5747C53.2903 40.9429 52.6535 41.127 51.8706 41.127C51.3204 41.127 50.8338 41.0296 50.4106 40.835C49.9874 40.6403 49.6552 40.3695 49.414 40.0225C49.1771 39.6712 49.0586 39.2925 49.0586 38.8862H50.2329C50.254 39.2798 50.4106 39.5929 50.7026 39.8257C50.9988 40.0542 51.3882 40.1685 51.8706 40.1685C52.3149 40.1685 52.6704 40.0796 52.937 39.9019C53.2078 39.7199 53.3432 39.4787 53.3432 39.1782ZM58.8974 41.127C57.9664 41.127 57.209 40.8223 56.625 40.2129C56.041 39.5993 55.749 38.7804 55.749 37.7563V37.5405C55.749 36.8592 55.8781 36.252 56.1362 35.7188C56.3986 35.1813 56.7625 34.7624 57.228 34.4619C57.6977 34.1572 58.2055 34.0049 58.7514 34.0049C59.6443 34.0049 60.3383 34.299 60.8335 34.8872C61.3286 35.4754 61.5761 36.3175 61.5761 37.4136V37.9023H56.9233C56.9402 38.5794 57.137 39.1274 57.5136 39.5464C57.8945 39.9611 58.3769 40.1685 58.9609 40.1685C59.3756 40.1685 59.7269 40.0838 60.0146 39.9146C60.3024 39.7453 60.5542 39.521 60.77 39.2417L61.4873 39.8003C60.9118 40.6847 60.0485 41.127 58.8974 41.127ZM58.7514 34.9697C58.2775 34.9697 57.8797 35.1432 57.5581 35.4902C57.2365 35.833 57.0376 36.3154 56.9614 36.9375H60.4018V36.8486C60.368 36.252 60.2072 35.7907 59.9194 35.4648C59.6316 35.1348 59.2423 34.9697 58.7514 34.9697ZM66.2607 35.1855C66.083 35.1559 65.8904 35.1411 65.6831 35.1411C64.9129 35.1411 64.3903 35.4691 64.1152 36.125V41H62.9409V34.1318H64.0835L64.1025 34.9253C64.4876 34.3117 65.0335 34.0049 65.7402 34.0049C65.9687 34.0049 66.1422 34.0345 66.2607 34.0938V35.1855ZM68.457 34.1318L68.4951 34.9951C69.0198 34.335 69.7054 34.0049 70.5517 34.0049C72.0032 34.0049 72.7353 34.8237 72.748 36.4614V41H71.5737V36.4551C71.5695 35.96 71.4552 35.5939 71.2309 35.3569C71.0109 35.12 70.666 35.0015 70.1963 35.0015C69.8154 35.0015 69.4811 35.103 69.1933 35.3062C68.9056 35.5093 68.6813 35.7759 68.5205 36.106V41H67.3462V34.1318H68.457ZM78.7592 41C78.6915 40.8646 78.6365 40.6234 78.5942 40.2764C78.0483 40.8434 77.3966 41.127 76.6391 41.127C75.962 41.127 75.4056 40.9365 74.9697 40.5557C74.5381 40.1706 74.3222 39.6839 74.3222 39.0957C74.3222 38.3805 74.5931 37.8262 75.1347 37.4326C75.6806 37.0348 76.4466 36.8359 77.4326 36.8359H78.5752V36.2964C78.5752 35.8859 78.4524 35.5601 78.207 35.3188C77.9616 35.0734 77.5997 34.9507 77.1216 34.9507C76.7026 34.9507 76.3514 35.0565 76.0678 35.2681C75.7843 35.4797 75.6425 35.7357 75.6425 36.0361H74.4619C74.4619 35.6934 74.5825 35.3633 74.8237 35.0459C75.0691 34.7243 75.3992 34.4704 75.8139 34.2842C76.2329 34.098 76.692 34.0049 77.1914 34.0049C77.9827 34.0049 78.6027 34.2038 79.0512 34.6016C79.4998 34.9951 79.7326 35.5389 79.7495 36.2329V39.394C79.7495 40.0246 79.8299 40.526 79.9907 40.8984V41H78.7592ZM76.8105 40.105C77.1787 40.105 77.5278 40.0098 77.8579 39.8193C78.188 39.6289 78.4271 39.3813 78.5752 39.0767V37.6675H77.6548C76.216 37.6675 75.4966 38.0885 75.4966 38.9307C75.4966 39.2988 75.6193 39.5866 75.8647 39.7939C76.1102 40.0013 76.4254 40.105 76.8105 40.105ZM82.6948 34.1318L82.7265 34.8936C83.2301 34.3011 83.9093 34.0049 84.7641 34.0049C85.7247 34.0049 86.3786 34.373 86.7256 35.1094C86.9541 34.7793 87.2503 34.5127 87.6142 34.3096C87.9824 34.1064 88.4161 34.0049 88.9155 34.0049C90.422 34.0049 91.188 34.8026 91.2133 36.3979V41H90.039V36.4678C90.039 35.9769 89.9269 35.6108 89.7026 35.3696C89.4783 35.1242 89.1017 35.0015 88.5727 35.0015C88.1369 35.0015 87.775 35.1326 87.4873 35.395C87.1995 35.6532 87.0324 36.0023 86.9858 36.4424V41H85.8051V36.4995C85.8051 35.5008 85.3164 35.0015 84.3388 35.0015C83.5687 35.0015 83.0418 35.3294 82.7583 35.9854V41H81.584V34.1318H82.6948ZM95.8408 41.127C94.9098 41.127 94.1523 40.8223 93.5683 40.2129C92.9843 39.5993 92.6924 38.7804 92.6924 37.7563V37.5405C92.6924 36.8592 92.8214 36.252 93.0796 35.7188C93.3419 35.1813 93.7059 34.7624 94.1714 34.4619C94.6411 34.1572 95.1489 34.0049 95.6948 34.0049C96.5877 34.0049 97.2817 34.299 97.7768 34.8872C98.2719 35.4754 98.5195 36.3175 98.5195 37.4136V37.9023H93.8667C93.8836 38.5794 94.0804 39.1274 94.457 39.5464C94.8379 39.9611 95.3203 40.1685 95.9043 40.1685C96.319 40.1685 96.6702 40.0838 96.958 39.9146C97.2457 39.7453 97.4975 39.521 97.7133 39.2417L98.4306 39.8003C97.8551 40.6847 96.9918 41.127 95.8408 41.127ZM95.6948 34.9697C95.2208 34.9697 94.823 35.1432 94.5014 35.4902C94.1798 35.833 93.9809 36.3154 93.9048 36.9375H97.3452V36.8486C97.3113 36.252 97.1505 35.7907 96.8628 35.4648C96.575 35.1348 96.1857 34.9697 95.6948 34.9697Z" fill="#969696"/>
<defs>
<filter id="filter0_d_1_13" x="0" y="0" width="357" height="82" filterUnits="userSpaceOnUse" color-interpolation-filters="sRGB">
<feFlood flood-opacity="0" result="BackgroundImageFix"/>
<feColorMatrix in="SourceAlpha" type="matrix" values="0 0 0 0 0 0 0 0 0 0 0 0 0 0 0 0 0 0 127 0" result="hardAlpha"/>
<feOffset dx="-4" dy="4"/>
<feGaussianBlur stdDeviation="9"/>
<feColorMatrix type="matrix" values="0 0 0 0 0 0 0 0 0 0 0 0 0 0 0 0 0 0 0.09 0"/>
<feBlend mode="normal" in2="BackgroundImageFix" result="effect1_dropShadow_1_13"/>
<feBlend mode="normal" in="SourceGraphic" in2="effect1_dropShadow_1_13" result="shape"/>
</filter>
</defs>
</svg>
